<?xml version="1.0" standalone="no"?>
<!DOCTYPE svg PUBLIC "-//W3C//DTD SVG 20010904//EN"
 "http://www.w3.org/TR/2001/REC-SVG-20010904/DTD/svg10.dtd">
<svg version="1.0" xmlns="http://www.w3.org/2000/svg"
 width="4418.000000pt" height="4418.000000pt" viewBox="0 0 4418.000000 4418.000000"
 preserveAspectRatio="xMidYMid meet">
<metadata>
Created by potrace 1.11, written by Peter Selinger 2001-2013
</metadata>
<g transform="translate(0.000000,4418.000000) scale(0.100000,-0.100000)"
fill="#000000" stroke="none">
<path d="M21695 31793 c-1046 -34 -1757 -84 -2650 -184 -1507 -168 -2915 -441
-4240 -820 -634 -182 -2021 -641 -2890 -957 -4429 -1609 -7375 -3442 -10945
-6811 -107 -102 -367 -351 -578 -555 l-383 -371 415 -3 c359 -2 416 -4 416
-17 0 -13 -57 -15 -415 -17 l-415 -3 437 -370 c2874 -2429 4759 -3892 6603
-5122 1099 -733 2191 -1383 3005 -1790 2531 -1266 5759 -2075 9265 -2323 823
-58 1330 -74 2285 -75 822 0 1087 6 1725 40 2426 130 4644 516 6685 1165 4276
1359 7028 2672 9713 4637 1307 956 2716 2172 4183 3610 97 95 181 173 187 173
6 0 24 12 41 26 26 21 31 33 29 62 -3 39 6 31 -978 858 -3194 2684 -5360 4294
-7535 5601 -883 531 -1522 871 -2230 1185 -2780 1235 -6151 1937 -9880 2058
-260 8 -1622 11 -1850 3z m855 -1463 c1358 -60 2617 -340 3825 -852 243 -102
716 -335 955 -468 594 -331 1137 -714 1665 -1173 177 -154 615 -591 766 -763
649 -743 1114 -1493 1447 -2334 681 -1718 678 -3613 -8 -5325 -161 -402 -317
-717 -538 -1085 -560 -935 -1309 -1757 -2237 -2455 -1832 -1377 -4211 -2105
-6643 -2035 -1132 33 -2152 212 -3192 560 -1905 636 -3514 1771 -4624 3260
-1100 1476 -1620 3227 -1480 4987 73 928 329 1843 750 2685 254 509 597 1037
963 1482 363 442 802 880 1256 1251 999 819 2238 1461 3550 1840 1141 330
2367 477 3545 425z"/>
<path d="M21804 27870 c-1060 -53 -2066 -368 -2949 -923 -1450 -912 -2427
-2403 -2664 -4062 -51 -360 -70 -884 -42 -1215 104 -1249 568 -2358 1384
-3310 139 -161 495 -512 662 -651 1007 -837 2187 -1309 3505 -1399 186 -13
594 -13 780 0 1318 90 2498 562 3505 1399 167 139 523 490 662 651 506 590
869 1227 1108 1945 198 593 287 1148 287 1785 0 407 -30 721 -108 1110 -273
1374 -1067 2618 -2218 3478 -921 687 -2019 1096 -3176 1181 -206 15 -546 20
-736 11z"/>
</g>
</svg>
