<?xml version="1.0" standalone="no"?>
<!DOCTYPE svg PUBLIC "-//W3C//DTD SVG 20010904//EN"
 "http://www.w3.org/TR/2001/REC-SVG-20010904/DTD/svg10.dtd">
<svg version="1.0" xmlns="http://www.w3.org/2000/svg"
 width="240.000000pt" height="240.000000pt" viewBox="0 0 240.000000 240.000000"
 preserveAspectRatio="xMidYMid meet">
<metadata>
Created by potrace 1.11, written by Peter Selinger 2001-2013
</metadata>
<g transform="translate(0.000000,240.000000) scale(0.100000,-0.100000)"
fill="#000000" stroke="none">
<path d="M986 2324 c-461 -91 -823 -456 -911 -917 -20 -102 -20 -322 0 -424
89 -465 453 -829 918 -918 102 -20 322 -20 424 0 465 89 829 453 918 918 20
102 20 322 0 424 -89 465 -453 829 -918 918 -98 19 -336 18 -431 -1z m564
-493 c0 -15 -10 -20 -57 -26 -75 -9 -99 -22 -118 -60 -13 -29 -15 -105 -15
-558 0 -333 4 -535 10 -554 14 -38 54 -61 124 -69 46 -6 56 -10 56 -25 0 -18
-15 -19 -350 -19 -336 0 -350 1 -350 19 0 15 10 20 58 26 129 16 122 -20 122
619 0 316 -4 545 -10 560 -12 32 -53 53 -118 62 -42 5 -52 10 -52 25 0 18 15
19 350 19 336 0 350 -1 350 -19z"/>
</g>
</svg>
